$MeshFormat
4.1 0 8
$EndMeshFormat
$Entities
8 12 6 1
1 0 0 0 0 
2 1 0 0 0 
3 1 1 0 0 
4 0 1 0 0 
5 0 0 1 0 
6 1 0 1 0 
7 1 1 1 0 
8 0 1 1 0 
1 0 0 0 1 0 0 0 2 1 -2 
2 1 0 0 1 1 0 0 2 2 -3 
3 0 1 0 1 1 0 0 2 3 -4 
4 0 0 0 0 1 0 0 2 4 -1 
5 0 0 0 0 0 1 0 2 1 -5 
6 1 0 0 1 0 1 0 2 2 -6 
7 1 1 0 1 1 1 0 2 3 -7 
8 0 1 0 0 1 1 0 2 4 -8 
9 0 0 1 1 0 1 0 2 5 -6 
10 1 0 1 1 1 1 0 2 6 -7 
11 0 1 1 1 1 1 0 2 7 -8 
12 0 0 1 0 1 1 0 2 8 -5 
1 0 0 0 1 1 0 0 4 1 2 3 4 
2 0 0 1 1 1 1 0 4 9 10 11 12 
3 0 0 0 1 0 1 0 4 1 6 -9 -5 
4 1 0 0 1 1 1 0 4 2 7 -10 -6 
5 0 1 0 1 1 1 0 4 3 8 -11 -7 
6 0 0 0 0 1 1 0 4 4 5 -12 -8 
1 0 0 0 1 1 1 0 6 1 2 3 4 5 6 
$EndEntities
$Nodes
27 14 1 14
0 1 0 1
1
0 0 0
0 2 0 1
2
1 0 0
0 3 0 1
3
1 1 0
0 4 0 1
4
0 1 0
0 5 0 1
5
0 0 1
0 6 0 1
6
1 0 1
0 7 0 1
7
1 1 1
0 8 0 1
8
0 1 1
1 1 0 0
1 2 0 0
1 3 0 0
1 4 0 0
1 5 0 0
1 6 0 0
1 7 0 0
1 8 0 0
1 9 0 0
1 10 0 0
1 11 0 0
1 12 0 0
2 1 0 1
9
0.5 0.5 0
2 2 0 1
10
0.5 0.5 1
2 3 0 1
11
0.5 0 0.5
2 4 0 1
12
1 0.5 0.5
2 5 0 1
13
0.5 1 0.5
2 6 0 1
14
0 0.5 0.5
3 1 0 0
$EndNodes
$Elements
27 68 1 68
0 1 15 1
1 1 
0 2 15 1
2 2 
0 3 15 1
3 3 
0 4 15 1
4 4 
0 5 15 1
5 5 
0 6 15 1
6 6 
0 7 15 1
7 7 
0 8 15 1
8 8 
1 1 1 1
9 1 2 
1 2 1 1
10 2 3 
1 3 1 1
11 3 4 
1 4 1 1
12 4 1 
1 5 1 1
13 1 5 
1 6 1 1
14 2 6 
1 7 1 1
15 3 7 
1 8 1 1
16 4 8 
1 9 1 1
17 5 6 
1 10 1 1
18 6 7 
1 11 1 1
19 7 8 
1 12 1 1
20 8 5 
2 1 2 4
21 1 2 9 
22 4 1 9 
23 2 3 9 
24 3 4 9 
2 2 2 4
25 5 6 10 
26 8 5 10 
27 6 7 10 
28 7 8 10 
2 3 2 4
29 1 2 11 
30 5 1 11 
31 2 6 11 
32 6 5 11 
2 4 2 4
33 2 3 12 
34 6 2 12 
35 3 7 12 
36 7 6 12 
2 5 2 4
37 3 4 13 
38 7 3 13 
39 4 8 13 
40 8 7 13 
2 6 2 4
41 4 1 14 
42 1 5 14 
43 8 4 14 
44 5 8 14 
3 1 4 24
45 10 12 14 13 
46 12 14 11 10 
47 9 14 12 13 
48 11 9 14 12 
49 9 11 1 2 
50 7 10 8 13 
51 4 1 9 14 
52 1 11 14 5 
53 5 14 8 10 
54 6 11 5 10 
55 4 8 14 13 
56 10 6 12 7 
57 3 12 7 13 
58 3 4 9 13 
59 3 12 9 2 
60 11 12 6 2 
61 1 11 9 14 
62 3 9 12 13 
63 12 10 7 13 
64 14 9 4 13 
65 10 14 8 13 
66 5 11 14 10 
67 6 12 11 10 
68 11 9 12 2 
$EndElements
